<mxfile host="app.diagrams.net" modified="2022-03-30T11:19:22.299Z" agent="5.0 (Windows NT 10.0; Win64; x64) AppleWebKit/537.36 (KHTML, like Gecko) Chrome/99.0.4844.82 Safari/537.36" etag="utA2XXJfj1gbRp3lPvKY" version="17.2.5" type="github">
  <diagram name="Page-1" id="e7e014a7-5840-1c2e-5031-d8a46d1fe8dd">
    <mxGraphModel dx="2062" dy="2774" grid="1" gridSize="10" guides="1" tooltips="1" connect="1" arrows="1" fold="1" page="1" pageScale="1" pageWidth="1169" pageHeight="826" math="0" shadow="0">
      <root>
        <mxCell id="0" />
        <mxCell id="1" parent="0" />
        <mxCell id="YQM-ETPXh2Ls3PX6K2ZG-51" value="Attack" style="html=1;verticalAlign=bottom;endArrow=block;rounded=1;sketch=0;fontColor=#5C5C5C;strokeColor=#006658;fillColor=#21C0A5;curved=0;" edge="1" parent="1" source="YQM-ETPXh2Ls3PX6K2ZG-45" target="YQM-ETPXh2Ls3PX6K2ZG-65">
          <mxGeometry width="80" relative="1" as="geometry">
            <mxPoint x="1180" y="-550" as="sourcePoint" />
            <mxPoint x="650" y="-890" as="targetPoint" />
            <Array as="points" />
          </mxGeometry>
        </mxCell>
        <mxCell id="YQM-ETPXh2Ls3PX6K2ZG-53" value="" style="shape=umlLifeline;participant=umlActor;perimeter=lifelinePerimeter;whiteSpace=wrap;html=1;container=1;collapsible=0;recursiveResize=0;verticalAlign=top;spacingTop=36;outlineConnect=0;rounded=0;sketch=0;fontColor=#5C5C5C;strokeColor=#006658;fillColor=#21C0A5;" vertex="1" parent="1">
          <mxGeometry x="1160" y="-920" width="20" height="300" as="geometry" />
        </mxCell>
        <mxCell id="YQM-ETPXh2Ls3PX6K2ZG-54" value="" style="shape=umlLifeline;participant=umlActor;perimeter=lifelinePerimeter;whiteSpace=wrap;html=1;container=1;collapsible=0;recursiveResize=0;verticalAlign=top;spacingTop=36;outlineConnect=0;rounded=0;sketch=0;fontColor=#5C5C5C;strokeColor=#006658;fillColor=#21C0A5;" vertex="1" parent="1">
          <mxGeometry x="640" y="-1280" width="20" height="350" as="geometry" />
        </mxCell>
        <mxCell id="YQM-ETPXh2Ls3PX6K2ZG-64" value="Display Error&amp;nbsp;" style="html=1;rounded=0;sketch=0;fontColor=#5C5C5C;strokeColor=#006658;fillColor=#21C0A5;" vertex="1" parent="1">
          <mxGeometry x="600" y="-560" width="110" height="50" as="geometry" />
        </mxCell>
        <mxCell id="YQM-ETPXh2Ls3PX6K2ZG-65" value="Has weapon" style="rhombus;whiteSpace=wrap;html=1;fillColor=#ffffc0;strokeColor=#ff0000;rounded=0;sketch=0;fontColor=#5C5C5C;" vertex="1" parent="1">
          <mxGeometry x="610" y="-770" width="80" height="40" as="geometry" />
        </mxCell>
        <mxCell id="YQM-ETPXh2Ls3PX6K2ZG-66" value="no" style="edgeStyle=orthogonalEdgeStyle;html=1;align=left;verticalAlign=bottom;endArrow=open;endSize=8;strokeColor=#ff0000;rounded=1;sketch=0;fontColor=#5C5C5C;fillColor=#21C0A5;curved=0;" edge="1" source="YQM-ETPXh2Ls3PX6K2ZG-65" parent="1">
          <mxGeometry x="-0.7647" y="10" relative="1" as="geometry">
            <mxPoint x="650" y="-560" as="targetPoint" />
            <mxPoint as="offset" />
          </mxGeometry>
        </mxCell>
        <mxCell id="YQM-ETPXh2Ls3PX6K2ZG-67" value="yes" style="edgeStyle=orthogonalEdgeStyle;html=1;align=left;verticalAlign=top;endArrow=open;endSize=8;strokeColor=#ff0000;rounded=1;sketch=0;fontColor=#5C5C5C;fillColor=#21C0A5;curved=0;" edge="1" source="YQM-ETPXh2Ls3PX6K2ZG-65" parent="1">
          <mxGeometry x="-0.8873" y="10" relative="1" as="geometry">
            <mxPoint x="535" y="-470" as="targetPoint" />
            <mxPoint as="offset" />
          </mxGeometry>
        </mxCell>
        <mxCell id="YQM-ETPXh2Ls3PX6K2ZG-68" value="RW" style="html=1;rounded=0;sketch=0;fontColor=#5C5C5C;strokeColor=#006658;fillColor=#21C0A5;" vertex="1" parent="1">
          <mxGeometry x="20" y="-750" width="110" height="50" as="geometry" />
        </mxCell>
        <mxCell id="YQM-ETPXh2Ls3PX6K2ZG-69" value="Is ranged" style="rhombus;whiteSpace=wrap;html=1;fillColor=#ffffc0;strokeColor=#ff0000;rounded=0;sketch=0;fontColor=#5C5C5C;" vertex="1" parent="1">
          <mxGeometry x="495" y="-463" width="80" height="40" as="geometry" />
        </mxCell>
        <mxCell id="YQM-ETPXh2Ls3PX6K2ZG-70" value="no" style="edgeStyle=orthogonalEdgeStyle;html=1;align=left;verticalAlign=bottom;endArrow=open;endSize=8;strokeColor=#ff0000;rounded=1;sketch=0;fontColor=#5C5C5C;fillColor=#21C0A5;curved=0;" edge="1" source="YQM-ETPXh2Ls3PX6K2ZG-69" parent="1">
          <mxGeometry x="-1" relative="1" as="geometry">
            <mxPoint x="675" y="-443" as="targetPoint" />
          </mxGeometry>
        </mxCell>
        <mxCell id="YQM-ETPXh2Ls3PX6K2ZG-71" value="yes" style="edgeStyle=orthogonalEdgeStyle;html=1;align=left;verticalAlign=top;endArrow=open;endSize=8;strokeColor=#ff0000;rounded=1;sketch=0;fontColor=#5C5C5C;fillColor=#21C0A5;curved=0;" edge="1" source="YQM-ETPXh2Ls3PX6K2ZG-69" parent="1">
          <mxGeometry x="-1" y="-67" relative="1" as="geometry">
            <mxPoint x="535" y="-363" as="targetPoint" />
            <mxPoint x="7" y="-30" as="offset" />
          </mxGeometry>
        </mxCell>
        <mxCell id="YQM-ETPXh2Ls3PX6K2ZG-72" value="Swing weapon&amp;nbsp;" style="html=1;rounded=0;sketch=0;fontColor=#5C5C5C;strokeColor=#006658;fillColor=#21C0A5;" vertex="1" parent="1">
          <mxGeometry x="680" y="-468" width="110" height="50" as="geometry" />
        </mxCell>
        <mxCell id="YQM-ETPXh2Ls3PX6K2ZG-73" value="Has ammo" style="rhombus;whiteSpace=wrap;html=1;fillColor=#ffffc0;strokeColor=#ff0000;rounded=0;sketch=0;fontColor=#5C5C5C;" vertex="1" parent="1">
          <mxGeometry x="495" y="-360" width="80" height="40" as="geometry" />
        </mxCell>
        <mxCell id="YQM-ETPXh2Ls3PX6K2ZG-74" value="no" style="edgeStyle=orthogonalEdgeStyle;html=1;align=left;verticalAlign=bottom;endArrow=open;endSize=8;strokeColor=#ff0000;rounded=1;sketch=0;fontColor=#5C5C5C;fillColor=#21C0A5;curved=0;" edge="1" source="YQM-ETPXh2Ls3PX6K2ZG-73" parent="1">
          <mxGeometry x="-1" relative="1" as="geometry">
            <mxPoint x="675" y="-340" as="targetPoint" />
          </mxGeometry>
        </mxCell>
        <mxCell id="YQM-ETPXh2Ls3PX6K2ZG-75" value="yes" style="edgeStyle=orthogonalEdgeStyle;html=1;align=left;verticalAlign=top;endArrow=open;endSize=8;strokeColor=#ff0000;rounded=1;sketch=0;fontColor=#5C5C5C;fillColor=#21C0A5;curved=0;" edge="1" source="YQM-ETPXh2Ls3PX6K2ZG-73" parent="1">
          <mxGeometry x="-0.3333" y="-15" relative="1" as="geometry">
            <mxPoint x="535" y="-260" as="targetPoint" />
            <mxPoint as="offset" />
          </mxGeometry>
        </mxCell>
        <mxCell id="YQM-ETPXh2Ls3PX6K2ZG-76" value="Display error" style="html=1;rounded=0;sketch=0;fontColor=#5C5C5C;strokeColor=#006658;fillColor=#21C0A5;" vertex="1" parent="1">
          <mxGeometry x="680" y="-360" width="110" height="50" as="geometry" />
        </mxCell>
        <mxCell id="YQM-ETPXh2Ls3PX6K2ZG-77" value="Fire" style="html=1;rounded=0;sketch=0;fontColor=#5C5C5C;strokeColor=#006658;fillColor=#21C0A5;" vertex="1" parent="1">
          <mxGeometry x="485" y="-260" width="110" height="50" as="geometry" />
        </mxCell>
        <mxCell id="YQM-ETPXh2Ls3PX6K2ZG-78" value="Player" style="html=1;rounded=0;sketch=0;fontColor=#5C5C5C;strokeColor=#006658;fillColor=#21C0A5;" vertex="1" parent="1">
          <mxGeometry x="800" y="-775" width="110" height="50" as="geometry" />
        </mxCell>
        <mxCell id="YQM-ETPXh2Ls3PX6K2ZG-79" value="Inventory" style="html=1;verticalAlign=bottom;endArrow=block;rounded=1;sketch=0;fontColor=#5C5C5C;strokeColor=#006658;fillColor=#21C0A5;curved=0;entryX=0;entryY=0;entryDx=0;entryDy=0;" edge="1" parent="1" target="YQM-ETPXh2Ls3PX6K2ZG-78">
          <mxGeometry width="80" relative="1" as="geometry">
            <mxPoint x="680" y="-770" as="sourcePoint" />
            <mxPoint x="760" y="-770" as="targetPoint" />
          </mxGeometry>
        </mxCell>
        <mxCell id="YQM-ETPXh2Ls3PX6K2ZG-80" value="Weapon in inv" style="html=1;verticalAlign=bottom;endArrow=open;dashed=1;endSize=8;rounded=1;sketch=0;fontColor=#5C5C5C;strokeColor=#006658;fillColor=#21C0A5;curved=0;entryX=0.5;entryY=1;entryDx=0;entryDy=0;" edge="1" parent="1" target="YQM-ETPXh2Ls3PX6K2ZG-65">
          <mxGeometry relative="1" as="geometry">
            <mxPoint x="800" y="-730" as="sourcePoint" />
            <mxPoint x="720" y="-730" as="targetPoint" />
          </mxGeometry>
        </mxCell>
        <mxCell id="YQM-ETPXh2Ls3PX6K2ZG-81" value="W" style="html=1;rounded=0;sketch=0;fontColor=#5C5C5C;strokeColor=#006658;fillColor=#21C0A5;" vertex="1" parent="1">
          <mxGeometry x="240" y="-750" width="110" height="50" as="geometry" />
        </mxCell>
        <mxCell id="YQM-ETPXh2Ls3PX6K2ZG-82" value="dispatch" style="html=1;verticalAlign=bottom;endArrow=block;rounded=1;sketch=0;fontColor=#5C5C5C;strokeColor=#006658;fillColor=#21C0A5;curved=0;exitX=0.1;exitY=0.7;exitDx=0;exitDy=0;exitPerimeter=0;" edge="1" parent="1" source="YQM-ETPXh2Ls3PX6K2ZG-73" target="YQM-ETPXh2Ls3PX6K2ZG-81">
          <mxGeometry width="80" relative="1" as="geometry">
            <mxPoint x="400" y="-240" as="sourcePoint" />
            <mxPoint x="400" y="-340" as="targetPoint" />
          </mxGeometry>
        </mxCell>
        <mxCell id="YQM-ETPXh2Ls3PX6K2ZG-84" value="dispatch" style="html=1;verticalAlign=bottom;endArrow=block;rounded=1;sketch=0;fontColor=#5C5C5C;strokeColor=#006658;fillColor=#21C0A5;curved=0;entryX=1;entryY=0.5;entryDx=0;entryDy=0;" edge="1" parent="1" target="YQM-ETPXh2Ls3PX6K2ZG-68">
          <mxGeometry width="80" relative="1" as="geometry">
            <mxPoint x="240" y="-720" as="sourcePoint" />
            <mxPoint x="320" y="-720" as="targetPoint" />
          </mxGeometry>
        </mxCell>
        <mxCell id="YQM-ETPXh2Ls3PX6K2ZG-85" value="return" style="html=1;verticalAlign=bottom;endArrow=open;dashed=1;endSize=8;rounded=1;sketch=0;fontColor=#5C5C5C;strokeColor=#006658;fillColor=#21C0A5;curved=0;entryX=0.25;entryY=1;entryDx=0;entryDy=0;" edge="1" parent="1" source="YQM-ETPXh2Ls3PX6K2ZG-68" target="YQM-ETPXh2Ls3PX6K2ZG-81">
          <mxGeometry relative="1" as="geometry">
            <mxPoint x="230" y="-710" as="sourcePoint" />
            <mxPoint x="150" y="-710" as="targetPoint" />
          </mxGeometry>
        </mxCell>
        <mxCell id="YQM-ETPXh2Ls3PX6K2ZG-86" value="return" style="html=1;verticalAlign=bottom;endArrow=open;dashed=1;endSize=8;rounded=1;sketch=0;fontColor=#5C5C5C;strokeColor=#006658;fillColor=#21C0A5;curved=0;" edge="1" parent="1" source="YQM-ETPXh2Ls3PX6K2ZG-81" target="YQM-ETPXh2Ls3PX6K2ZG-73">
          <mxGeometry relative="1" as="geometry">
            <mxPoint x="290" y="-660" as="sourcePoint" />
            <mxPoint x="210" y="-660" as="targetPoint" />
          </mxGeometry>
        </mxCell>
        <mxCell id="YQM-ETPXh2Ls3PX6K2ZG-45" value="UI" style="html=1;rounded=0;sketch=0;fontColor=#5C5C5C;strokeColor=#006658;fillColor=#21C0A5;" vertex="1" parent="1">
          <mxGeometry x="595" y="-930" width="110" height="50" as="geometry" />
        </mxCell>
      </root>
    </mxGraphModel>
  </diagram>
</mxfile>
